<?xml version="1.0" standalone="no"?>
<!DOCTYPE svg PUBLIC "-//W3C//DTD SVG 20010904//EN"
 "http://www.w3.org/TR/2001/REC-SVG-20010904/DTD/svg10.dtd">
<svg version="1.0" xmlns="http://www.w3.org/2000/svg"
 width="256.000000pt" height="256.000000pt" viewBox="0 0 256.000000 256.000000"
 preserveAspectRatio="xMidYMid meet">
<metadata>
Created by potrace 1.11, written by Peter Selinger 2001-2013
</metadata>
<g transform="translate(0.000000,256.000000) scale(0.100000,-0.100000)"
fill="#000000" stroke="none">
<path d="M1115 2288 c-220 -37 -392 -125 -551 -283 -251 -250 -352 -570 -288
-914 59 -321 274 -599 573 -740 33 -16 57 -32 53 -36 -4 -5 -2 -5 4 -2 7 4 40
-2 75 -13 261 -84 590 -41 829 106 202 124 336 285 424 508 29 73 29 72 51
183 24 119 21 330 -6 399 -4 13 -6 24 -4 24 2 0 -9 39 -26 87 -82 231 -214
401 -416 533 -72 48 -196 105 -263 122 -19 5 -44 11 -55 14 -118 30 -267 35
-400 12z"/>
</g>
</svg>
